<?xml version="1.0" encoding="utf-8"?>
<!-- Generator: Adobe Illustrator 24.0.1, SVG Export Plug-In . SVG Version: 6.00 Build 0)  -->
<svg version="1.1" id="Calque_1" xmlns="http://www.w3.org/2000/svg" xmlns:xlink="http://www.w3.org/1999/xlink" x="0px" y="0px"
	 viewBox="0 0 24 30" style="enable-background:new 0 0 24 30;" xml:space="preserve">
<style type="text/css">
	.st0{fill:#FFFFFF;}
</style>
<path class="st0" d="M23.1,19.7c-0.2-0.4-0.6-0.9-0.8-1.3c-0.2-0.4-1.6-2.5-1.8-3h0c-0.1-0.2-0.2-0.5-0.3-0.5
	c-0.2-0.3-0.7-1.3-0.9-2c-0.2-0.7-0.7-2.1-0.8-2.5c0,0,0,0,0,0c0.1-0.1,0.2-0.3,0.1-0.5c-0.1-0.1-0.1-0.6-0.1-0.9l0-0.1
	c0.2-0.1,0.1-0.6,0.1-0.8c0-0.2-0.1-0.4-0.2-0.6c-0.1-0.2-0.2-0.3-0.2-0.5c-0.1-0.4-0.5-0.6-0.8-0.7l-0.1,0c-0.2-0.1-0.7-0.6-1-1.3
	c-0.3-0.7-1.5-2.6-1.9-3.1c-0.1-0.1-0.2-0.3-0.3-0.5c-0.3-0.4-0.6-0.8-0.8-0.9c-0.3-0.2-0.4-0.2-0.7-0.1l-0.1,0
	c-0.2,0.1-0.5,0.3-0.7,0.6c-0.5-0.2-1.1-0.4-1.3-0.4c-0.1,0-0.3,0.2-0.4,0.3c0,0,0,0,0,0C9.9,0.8,9.5,1,9.4,1.1l0,0
	C9.2,1.2,9.2,1.2,9.1,1.4C9,1.4,9,1.5,8.9,1.5l0,0c-0.7-0.1-0.9,0-1,0c-0.1,0-0.2,0.2-0.1,0.5c0,0,0,0.1-0.1,0.1
	c-0.2,0-0.3,0.2-0.3,0.3l0,0c-0.1,0-0.1,0.1-0.1,0.2c0,0.1-0.1,0.1-0.1,0.2C6.9,3,6.7,3.2,6.7,3.3C6.6,3.6,6.7,3.8,6.8,3.8
	c0.1,0.1,0.7,0.8,1,1c0.1,0.1,0.1,1,0,1.3c0,0.2,0,0.4,0,0.5c0,0.3-0.2,0.6-0.4,0.9C7.3,7.6,7.3,7.7,7.2,7.8
	C7.1,7.9,6.9,8.1,6.7,8.3c0,0,0,0,0,0s-0.9,0.6-1.6,1c-0.7,0.4-1,1.3-0.9,2c0,0.3,0,0.6,0.2,0.9c0.1,0.1,0.2,0.3,0.3,0.4
	c0.3,0.8,0.5,1.9,0.5,3c0,1.4-0.5,2.5-0.4,2.6c0.6,0,1.1,0,1.7-0.1c0.1,0.5,0.3,0.9,0.6,1.4c-0.9,0-4.1,0-5.3,0.3
	c-1.3,0.3-1.5,0.9-1.3,1.7c0.1,0.8,0.3,1.3,1.1,1.5c2.3,0.7,2.6,0.5,3.5,0.5c0,0,0,0,0-0.1c0,0,0,0.1,0.1,0.1c0.2,0,1.2,0.1,2.2,0.1
	c0.3,0,0.6,0,0.7,0c0,0,0.1,0,0.2,0c0.4,0,1.2,0.1,1.6,0c0.1,0,0.2-0.1,0.3-0.1c0.1,0.1,0.2,0.1,0.3,0.2c0.1,0,0.3,0,0.3,0
	c0,0,0.1,0,0.2,0c0.1,0,0.1,0,0.2-0.1c0.1,0,0.1,0,0.1,0c0,0,0.1,0,0.2,0c0,0,0.1,0,0.1,0c0.3-0.1,0.2-0.4,0.2-0.5c0,0,0,0,0-0.1
	c0,0,0,0,0,0c0.1,0,0.3-0.1,0.6-0.2c0.4-0.1,1.8,0.1,2.2,0.2c0.4,0.1,3.7,0.3,4.4,0.1c0.7-0.1,2.1,0,3-0.1c0.9,0,1.2-0.1,1.7-1.1
	C23.9,21.1,23.3,20,23.1,19.7z M18.3,10.1C18.3,10.1,18.3,10.1,18.3,10.1c-0.1,0-0.1,0-0.2-0.1C18,9.9,18,9.7,18.1,9.6c0,0,0,0,0,0
	c0.1,0,0.2-0.2,0.2-0.3c0,0.3,0.1,0.5,0.1,0.6C18.4,9.9,18.3,10.1,18.3,10.1z M17.7,7.9c0-0.1-0.1-0.1-0.1-0.1
	c-0.1,0-0.1,0.1-0.1,0.1l0.2,0.7c0,0,0,0,0,0.1c0,0-0.2,0.1-0.3,0c-0.1-0.1-0.2-0.7-0.3-0.8l0,0c0-0.1,0-0.2,0-0.3l0-0.1
	C17,7.1,17,7.1,17,7c0,0,0,0,0.1,0c0.2,0.1,0.5,0.4,0.6,0.5c0.1,0.1,0.3,0.5,0.3,0.7c0,0.1,0,0.3,0,0.4c0,0.1,0,0.1,0,0.2
	c0,0.1,0,0.4-0.1,0.4c0,0-0.1,0-0.2-0.1c0-0.1-0.1-0.2,0-0.4c0,0,0.1-0.1,0.1-0.3L17.7,7.9z M10.5,3.5C10.5,3.5,10.5,3.5,10.5,3.5
	c0,0,0.7-1.6,0.9-2c0.3-0.5,0.8-0.9,1.1-1l0.1,0c0.2-0.1,0.3-0.1,0.5,0.1c0.2,0.1,0.5,0.5,0.7,0.9c0.1,0.2,0.2,0.3,0.3,0.5
	c0.4,0.5,1.5,2.3,1.9,3.1c0.3,0.7,0.9,1.3,1.1,1.4l0.1,0c0.2,0.1,0.6,0.3,0.7,0.6c0,0.2,0.1,0.4,0.2,0.5c0.1,0.2,0.2,0.4,0.2,0.5
	c0,0.2,0,0.4,0,0.5c0-0.1,0-0.1,0-0.2C18.2,8,18,7.7,17.9,7.5c-0.1-0.2-0.4-0.5-0.6-0.6c-0.1-0.1-0.2-0.1-0.3,0
	c-0.1,0.1-0.1,0.4-0.1,0.6l0,0.1c0,0.2,0.1,0.5,0.1,1c0,0.2,0,0.2,0,0.2c-0.1,0-0.2-0.1-0.3-0.2c-0.1-0.1-0.1-0.3-0.1-0.6
	c0-0.1,0-0.3-0.1-0.4c-0.1-0.3-0.5-1-0.5-1l-0.4-0.9c-0.3-0.8-1.7-2-1.7-2c0,0-0.8-0.7-1-0.7l0,0l0,0c0,0-0.1,0-0.1,0
	c-0.2,0.1-1.2,2.3-1.2,2.6l0,0.1c-0.1,1.5-0.3,1.8-0.3,1.8c-0.3,0.2-0.4,0.6-0.3,0.9c0,0.1,0,0.2,0,0.3c-0.1,0.7-0.3,1.5-0.9,1.5
	c-0.9,0-1.8-0.4-2.2-0.9C7.4,9,8,7.9,8.3,7.5c0,0,0,0,0,0c0,0,0,0,0,0C8.4,7.4,8.8,7,8.9,6.9c0,0,0.1-0.1,0.1-0.1
	c0.2-0.2,0.5-0.3,0.7-1c0-0.1,0.1-0.4,0.2-0.6C10,5,10.1,4.7,10.1,4.5C10.2,4.3,10.5,3.7,10.5,3.5z M16.5,8.7c0,0-0.1-0.1-0.2-0.2
	c-0.3-0.3-0.7-0.7-0.7-1.1c0-0.7-0.7-1.4-1.1-1.7c-0.1-0.1-0.2-0.2-0.3-0.3C14,5.2,13.9,5.1,13.7,5c0-0.1,0-0.1,0-0.2c0,0,0,0,0,0
	s0.1-0.2,0.1-0.3C13.9,4.3,14,4.3,14,4.2c0.4,0.3,1.1,1,1.4,1.7l0.4,0.9c0,0,0.4,0.7,0.5,1c0,0.1,0,0.2,0.1,0.3
	C16.4,8.3,16.4,8.5,16.5,8.7z M10.2,0.8C10.2,0.8,10.2,0.8,10.2,0.8C10.2,0.8,10.2,0.8,10.2,0.8C10.2,0.8,10.2,0.8,10.2,0.8z
	 M7.4,7.9c0.1-0.1,0.1-0.2,0.2-0.3C7.8,7.3,8,6.9,8,6.6c0-0.1,0-0.3,0-0.5c0.1-0.8,0.1-1.4-0.1-1.5C7.6,4.5,7,3.8,6.9,3.7
	c0,0-0.1-0.2,0-0.3c0-0.1,0.1-0.2,0.3-0.3c0,0,0,0,0,0C7.3,3,7.3,2.9,7.3,2.8c0-0.1,0-0.1,0.1-0.1c0,0,0.1,0,0.1-0.1l0-0.1
	c0-0.1,0.1-0.2,0.1-0.2c0.2,0,0.3-0.2,0.3-0.3c0,0,0,0,0,0c0-0.1,0-0.3,0-0.3c0.1,0,0.3,0,1,0c0,0,0.1,0,0.1,0L9,1.7
	c0.1-0.1,0.1-0.1,0.2-0.1c0,0,0,0,0,0c0.1-0.2,0.1-0.2,0.2-0.3l0,0C9.6,1.1,10,1,10.1,1c0,0,0,0,0,0c0,0,0,0,0,0.1
	c0,0.1-0.1,0.2-0.1,0.3C9.9,1.5,9.8,1.7,9.9,1.9C9.9,2,9.6,2.6,9.5,2.7C9.4,2.7,9.3,2.9,9.4,3c0,0.1,0.1,0.3,0.3,0.3
	c0.1,0,0.2,0,0.3,0c0.1,0,0.1,0,0.1,0c0.1,0.1,0.2,0.2,0.3,0.3C10.2,3.7,10,4.2,9.9,4.5C9.9,4.7,9.8,4.9,9.7,5.2
	C9.6,5.4,9.5,5.6,9.5,5.8C9.3,6.3,9.1,6.5,8.9,6.6c0,0-0.1,0.1-0.1,0.1C8.6,6.9,8.2,7.3,8.2,7.4c0,0,0,0,0,0
	C8.1,7.4,7.6,7.8,7.2,8.1C7.3,8.1,7.4,8,7.4,7.9z M11.4,23.5c-0.1,0-0.1,0-0.2,0c-0.1,0-0.1,0-0.1,0c0,0-0.1,0-0.1,0
	c0,0-0.1,0-0.1,0c-0.2,0.1-0.2,0-0.2,0c0,0,0,0-0.1,0c0,0,0,0,0,0c0,0-0.1,0-0.1,0c0,0-0.1,0-0.2,0c-0.1,0-0.2-0.1-0.2-0.2
	c0,0,0-0.1-0.1-0.1c0,0-0.1,0-0.1,0c-0.1,0.1-0.2,0.1-0.3,0.2c-0.4,0.1-1.1,0-1.5,0c-0.1,0-0.2,0-0.2,0c-0.1,0-0.3,0-0.7,0
	c-0.5,0-1.3,0-1.8,0c0-0.1-0.1-0.3-0.1-0.3c0-0.7,0.2-1.2,0.5-1.5c0.1,0,0.1,0,0.2,0c0,0,0.1-0.1,0.2-0.2c0.2-0.1,0.5,0,0.7,0
	c0.3,0.1,1.2,0.3,1.5,0.2c0.2-0.1,0.4-0.1,0.5-0.4c0.1-0.3,0.5-0.3,0.6-0.2c0.1,0.1,0.3,0.4,0.5,0.5c0.1,0.1,0.3,0.1,0.5,0.2
	c0.2,0.1,0.2,0.6,0.3,0.6c0.1,0.1,0.2,0.1,0.4,0.3c0.1,0,0.1,0,0.2,0.2c0,0.2,0,0.3,0,0.3c0,0,0,0,0,0.1
	C11.4,23.4,11.4,23.5,11.4,23.5z M11,18.6c-0.5,0.5-1.1,1.6-2,1.7c-0.8,0.2-1.3-0.2-1.6-0.6c-0.3-0.6-0.6-1.1-0.7-1.6
	c1-0.2,1.8-0.5,2.3-0.7c0.8-0.3,1.5-0.6,1.5-0.6c0,0,0.1,0,0.1,0c0.1,0.1,0.1,0.1,0.2,0.1c0.2,0.1,0.3,0.2,0.5,0.3
	c0.2,0.1,0.4,0.2,0.5,0.3C11.6,17.7,11.3,18.2,11,18.6z M16.8,19.8c-0.4,0-1.2-0.4-1.7-0.5c-0.4-1.1-1.6-1.7-2-1.8
	c-0.5-0.1-0.7-0.2-1-0.3c0,0,0,0,0,0c-0.2-0.1-0.4-0.2-0.6-0.3c-0.2-0.1-0.3-0.2-0.5-0.3c0,0,0,0,0,0c0.1,0,0.1,0,0.1,0
	c0-0.1-0.3-0.4-0.3-0.6c0-0.1-0.2-0.1-0.3-0.3c0-0.2-0.3-0.5-0.3-0.6c0-0.1,0-0.2,0-0.2c0-0.1-0.1-0.6,0-1c0.1-0.1,0-0.2,0-0.5
	c0.1-0.1,0-0.3,0.1-0.5c0.1-0.1,0.1-0.2,0-0.3c0-0.1,0.1-0.3,0.1-0.4c0.1-0.1,0-0.4,0-0.6c0-0.2,0.2-0.3,0.3-0.5
	c0.1,0,0.2-0.3,0.2-0.5c0.5-0.6,0.5-1.8,0.4-2.2c-0.1-0.3,0-0.5,0.3-0.7c0.1-0.1,0.2-0.5,0.3-1.1c0.2,0,0.3-0.1,0.4-0.2
	c0.1-0.1,0.7-0.6,1.1-0.9c0.2-0.1,0.3-0.3,0.4-0.5c0,0,0,0,0,0c0.1,0.1,0.3,0.3,0.5,0.5c0.1,0.1,0.2,0.2,0.3,0.3c0.3,0.3,1,1,1,1.6
	c0,0.5,0.4,0.9,0.8,1.2c0.1,0.1,0.2,0.2,0.3,0.3c0.1,0.2,0.2,0.4,0.3,0.4c0,0.1,0,0.3,0,0.7c0,0.5,0,1.5-0.4,2
	c-0.3,0.5-0.3,0.9-0.2,1.2c0.1,0.3,0.4,0.4,0.7,0.5c0.4,0.1,0.5,0.2,0.7,0.6c0.1,0.2,0.4,0.9,0.6,1.5c0.1,0.2,0.1,0.3,0.2,0.5
	c0,0,0,0,0,0c0,0.1,0.2,0.6,0.3,1.1c0.2,1.2,0.7,2.4,1,2.8C19.4,20.3,17.2,19.8,16.8,19.8z M18.5,16.2c0-0.1-0.1-0.2-0.1-0.4
	c-0.2-0.6-0.5-1.3-0.6-1.5c-0.2-0.5-0.4-0.6-0.8-0.7c-0.2-0.1-0.4-0.2-0.5-0.4c-0.1-0.2,0-0.6,0.2-1C17,11.6,17,10.4,17,10
	c0-0.4,0-0.7,0-0.7c0,0,0-0.1-0.1-0.1c0,0-0.1-0.1-0.3-0.3C16.8,8.9,16.9,9,17,9c0.1,0,0.1-0.1,0.2-0.3c0,0,0,0.1,0,0.1
	c0.1,0.1,0.2,0.2,0.3,0.2c0,0,0.1,0,0.1,0c0,0.2,0,0.4,0,0.5c0,0,0,0,0,0c0.1,0.1,0.2,0.1,0.2,0.2c0,0,0,0,0,0c0,0-0.1,0.3,0.1,0.6
	c0.1,0.1,0.1,0.1,0.2,0.2c0.1,0.3,0.7,1.8,0.8,2.5c0.2,0.8,0.7,1.8,0.9,2.1c0,0,0,0,0,0c0.1,0.1,0.2,0.2,0.2,0.4
	C19.6,15.4,18.9,15.9,18.5,16.2z"/>
</svg>
