<?xml version="1.0" encoding="utf-8"?>
<!-- Generator: Adobe Illustrator 24.0.1, SVG Export Plug-In . SVG Version: 6.00 Build 0)  -->
<svg version="1.1" id="Calque_1" xmlns="http://www.w3.org/2000/svg" xmlns:xlink="http://www.w3.org/1999/xlink" x="0px" y="0px"
	 viewBox="0 0 24 30" style="enable-background:new 0 0 24 30;" xml:space="preserve">
<style type="text/css">
	.st0{fill:#681A96;}
</style>
<g>
	<path class="st0" d="M7.1,8.7c0.2,1.6,1,3,1.1,3.2c0.2,0.4,0.4,1.4,0.5,1.4c0.1,0.1,0.1,0.2,0.2,0.3C9,14,9.2,14.7,9.3,15.2
		c0.1,0.6,0.1,1.6,0.1,1.9S9.3,17.7,9.3,18c0.1,0.2-0.1,0.6-0.2,1c0,0.1,0,0.2,0,0.2c-0.1,0.2-0.1,0.4-0.2,0.5c0.2,0,0.3,0,0.5,0.2
		c0.3,0.3,0.7,0.4,0.8,0.4c0.2-0.1,0.6-0.2,1-0.1c0.2,0.1,0.4,0.3,0.6,0.5c0,0.1,0,0.2,0,0.2c0.2,0,0.8,0,1.3,0.1l0.5,0
		c0.1-0.1,0.2-0.2,0.4-0.3c0.2-0.2,0.4-0.4,0.6-0.4c0.2,0,0.4-0.1,0.5-0.1c0.1,0,0.1,0,0.2,0c-0.1-0.1-0.1-0.1-0.2-0.2
		c-0.1-0.3-0.2-0.5-0.3-0.6c0,0,0,0,0,0s-0.1-0.2-0.1-0.3c0-0.1-0.2-0.4-0.2-0.6c0-0.2-0.1-0.8-0.1-0.9c-0.1-0.1-0.2-0.5-0.1-0.5
		s0-0.5-0.1-0.6c0-0.1,0-0.3,0-0.6c0.1-0.2,0.1-0.8,0.1-0.9c0-0.1,0-0.5,0-0.9c0-0.2,0-0.4,0.1-0.6c0.1-0.1,0.1-0.1,0.1-0.2
		c0.1-0.6,0.3-1.4,0.6-1.9c0.7-1,1-2.6,1.1-3.3c0.1-0.3,0.3-1.3,0.1-1.6c0,0,0,0,0,0c-0.3-0.3-2.1-1.7-3-2.4
		c-0.7-0.5-0.8-0.6-0.8-0.8c0-0.1,0-0.2-0.1-0.3C12.3,2.4,12,1,12,0.7c0-0.3,0-0.5-0.1-0.5c0,0-0.1,0-0.1,0c-0.1,0-0.1,0.1-0.1,0.1
		c0,0-0.1-0.1-0.1,0c-0.1,0-0.1,0.1-0.1,0.3c0,0.3-0.2,1-0.3,1.5c0,0.2-0.1,0.4-0.1,0.6c-0.1,1-0.6,1.3-1.2,1.7L9.6,4.3
		C8.9,4.7,7.3,6.1,7.1,6.4C6.8,6.6,6.9,7,7,7.7C7,8,7.1,8.3,7.1,8.7z M11.7,3.7c0.1,0.1,0.3,0.3,0.7,0.7c0.1,0.1,0.2,0.2,0.3,0.3
		c0.4,0.3,1.7,1.7,1.9,2c0.2,0.3,0.2,0.6,0,0.9c-0.1,0.2-0.3,0.6-0.4,0.9c-0.1,0.3-0.2,0.6-0.4,0.9c0,0.1-0.1,0.1-0.1,0.1
		C13.5,9,13,8.7,13.1,8.6c0.2-0.2,0.2-0.9,0.3-1c0.1-0.9-0.4-1.4-0.8-1.8s-0.7-0.2-0.9-0.2c-0.2-0.2-0.5-0.1-1,0.2
		c-0.5,0.3-0.6,1.2-0.7,1.6c0,0-0.1,0-0.1,0C9.9,7.6,9.9,7.7,9.9,8c0.1,0.4,0.1,0.6,0.3,0.7c0,0,0,0,0.1,0c0.1,0.2,0.2,0.7,0.3,0.8
		c0.1,0.6-0.1,0.7-0.2,0.8c0,0-0.1,0.1-0.1,0.1c-0.1,0.2-0.2,0.2-0.2,0.2c0,0,0,0,0,0C10,10.4,9.5,9.8,9.3,9.6
		C9.2,9.5,9.1,9.1,9,8.9C9,8.7,8.9,8.5,8.9,8.3c-0.2-0.3-0.4-0.9-0.4-1c0-0.1,0.1-0.4,0.3-0.6C9,6.5,9.2,6.3,9.4,6.1
		c0.3-0.3,0.6-0.7,0.9-0.9C10.8,4.8,11.5,3.9,11.7,3.7z M13.5,11.4C13.5,11.4,13.5,11.4,13.5,11.4C13.5,11.4,13.5,11.4,13.5,11.4
		C13.5,11.4,13.5,11.4,13.5,11.4z M10.3,10.8C10.3,10.8,10.3,10.8,10.3,10.8c0.1-0.1,0.1-0.1,0.2-0.2c0,0,0,0,0.1-0.1
		c0.2-0.1,0.3-0.3,0.2-1c0,0,0,0,0,0c-0.1-0.2-0.3-0.8-0.3-0.8c0,0,0-0.1-0.1-0.1c0,0-0.1,0-0.1,0c0,0-0.1,0-0.2-0.5
		c0-0.1,0-0.3,0-0.4c0,0,0,0,0,0c0,0,0,0,0,0c0,0.1,0.1,0.1,0.1,0.1c0.1,0.3,0.1,0.2,0.1,0.2c0-0.2,0.1-0.5,0.2-0.5
		c0.1-0.1,0.2-0.1,0.2-0.1h0.1l0.1,0l0-0.3c0,0,0,0,0,0l0,0.3c0.1,0,0.3,0,0.3-0.1c0,0,0.1,0,0.1,0l0-0.2l0,0.2l0-0.2l0,0.2l0-0.2
		l0,0.2l0-0.2l0,0.2l0-0.4l0,0.4l0-0.2v0.2l0.1-0.4l0,0.4L12,6.8c0,0,0,0,0,0v0.6l0.2,0c0.2,0,0.5,0.2,0.6,0.3
		C12.9,7.7,12.9,7.8,13,8C13,8,13,8,13,8c0,0-0.1,0.8-0.3,1.1c0,0.1-0.1,0.1-0.1,0.2c-0.1,0.2-0.2,0.3-0.2,0.8c0,0.2,0,0.6,0.2,0.6
		c0,0,0.1,0,0.1,0c0,0.5,0,1,0.1,1.3c0-0.2,0.1-0.2,0.1-0.2s0,0.4,0,0.4c0-0.1,0.1-0.3,0.1-0.3c0.1,0.1,0.1,0.6,0.1,0.6
		s0-0.2,0.1-0.4c0,0.2,0,0.3,0.1,0.4c-0.1,0.1-0.2,0.2-0.4,0.3c-0.3,0.2-0.9,0.5-1.1,0.5s-1.1-0.8-1.4-1.1
		C10,11.7,10.4,10.9,10.3,10.8z M12.8,10.4C12.8,10.4,12.8,10.4,12.8,10.4c-0.1,0.1-0.1,0.1-0.1,0.2c0,0-0.1-0.1-0.1-0.4
		c0-0.4,0-0.5,0.1-0.7c0-0.1,0.1-0.1,0.1-0.2c0-0.1,0.1-0.1,0.1-0.2C12.9,9.3,12.9,9.9,12.8,10.4z M13.3,11.8c0-0.1,0-0.1,0-0.2
		c0,0.2,0,0.3,0,0.4c0,0.1,0,0.1-0.1,0.2C13.3,12,13.3,11.9,13.3,11.8z M13.2,12.3c0-0.1,0-0.2,0-0.5c0,0.1,0,0.2,0.1,0.4
		C13.3,12.2,13.2,12.3,13.2,12.3z M11.8,0.4c0,0.1,0,0.1,0,0.3c0,0.3,0.3,1.7,0.5,2.2c0,0.1,0.1,0.2,0.1,0.2
		c0.1,0.3,0.2,0.4,0.9,0.9c1,0.7,2.7,2.1,3,2.3c0,0.1,0,0.5-0.2,1.4C16,8.5,15.7,10,15,11c-0.3,0.5-0.5,1.2-0.6,1.7
		c-0.5-0.1-0.8-0.7-0.9-0.9c0-0.1,0-0.2,0-0.3c0,0,0,0,0,0.1c0-0.2,0.2-0.5,0.2-0.5s-0.1,0.2-0.1,0.3c0.1-0.2,0.2-0.3,0.2-0.3
		s0.1,0,0,0.2c0.1-0.2,0.1-0.2,0-1.2c0-0.1,0-0.3-0.1-0.4c0.1-0.1,0.1-0.2,0.2-0.3c0.1-0.3,0.3-0.6,0.4-0.9c0.1-0.4,0.3-0.7,0.4-0.9
		l0,0c0.3-0.4,0.3-0.8,0-1.2c-0.2-0.3-1.6-1.7-2-2c-0.1-0.1-0.2-0.2-0.3-0.3c-0.2-0.2-0.6-0.6-0.6-0.7c0-0.1-0.1-0.1-0.1-0.1
		L11.8,0.4C11.8,0.5,11.8,0.4,11.8,0.4z M7.2,6.5C7.5,6.2,9,4.9,9.7,4.4l0.1-0.1c0.7-0.4,1.3-0.8,1.3-1.8c0-0.1,0.1-0.3,0.1-0.5
		c0.1-0.4,0.2-0.9,0.2-1.2v2.7c-0.1,0.1-0.8,1-1.4,1.5C9.8,5.3,9.5,5.6,9.2,6C9,6.2,8.9,6.4,8.7,6.6C8.5,6.8,8.3,7.1,8.3,7.3
		c0,0.2,0.3,0.9,0.4,1.1c0.1,0.1,0.1,0.3,0.2,0.5C8.9,9.3,9,9.6,9.2,9.7c0.2,0.2,0.7,0.8,0.8,1c0,0,0,0,0,0c0,0,0,0,0,0
		c0,0.2,0,0.6,0,0.8c0,0.2,0,0.3-0.3,0.7c-0.3,0.4-0.6,0.5-0.8,0.5c-0.1-0.3-0.2-0.8-0.4-1.1c-0.1-0.2-0.9-1.6-1.1-3.1
		c0-0.4-0.1-0.7-0.1-0.9C7.1,7,7,6.7,7.2,6.5z"/>
	<path class="st0" d="M7.8,23.3C7.9,23,8,22.8,8.1,22.6c0.1-0.2,0.2-0.7,0.2-0.9l-0.6-0.4l0.7,0c0.1,0,0.5,0,1,0.1
		c-0.2-0.2-0.4-0.3-0.4-0.4C9,21.1,8.9,21,8.9,21c-0.2-0.1-0.3-0.2-0.6-0.2c-0.3,0-0.6,0-0.7-0.1c0,0-0.1,0-0.1-0.1
		c-0.1,0-0.1-0.1-0.2-0.1c-0.4,0.1-0.9,0.2-1.4,0.6c-1.1,0.6-1,1.3-0.8,1.9c0.2,0.8,1.2,0.8,2.3,0.8c0.1,0,0.2,0,0.3,0l0.1-0.1
		C7.7,23.5,7.8,23.4,7.8,23.3z"/>
	<path class="st0" d="M19,21.6c-0.6-1-1.7-1.2-2.4-1.2c-0.2,0-0.4,0-0.5,0c0,0.1,0,0.2-0.1,0.2c-0.1,0.1-0.1,0.2-0.4,0.3l0.2,0.1
		l-0.2,0.2c-0.2,0.2-0.1,0.7,0,1c0.2,0.6,0.3,1.1,0.3,1.1l0,0.1c0.3,0,1,0.1,2,0C19,23.3,19.3,22.3,19,21.6z"/>
	<path class="st0" d="M15.4,22.2c-0.2-0.5-0.2-0.9,0-1.1l0.1-0.1l-0.1-0.1c-0.1,0-0.1,0-0.2,0c0.5-0.2,0.6-0.3,0.6-0.4c0,0,0,0,0,0
		c0.1-0.1,0.1-0.2,0.1-0.2c-0.1-0.1-0.3-0.2-0.4-0.1c0,0-0.1,0-0.1,0c-0.1,0-0.2,0-0.3,0c-0.1,0-0.3,0.1-0.5,0.1
		c-0.2,0-0.3,0.2-0.5,0.4c-0.1,0.1-0.3,0.2-0.4,0.4l-0.2,0c-0.7,0-1.5-0.1-1.7-0.1c0,0,0,0,0,0c0-0.1,0-0.1,0-0.2
		c-0.1-0.2-0.3-0.4-0.5-0.5c-0.3-0.1-0.7,0-0.9,0.1c-0.2,0.1-0.6-0.1-0.9-0.4c-0.3-0.3-0.7-0.1-0.9-0.1c0,0-0.1,0-0.1,0
		c-0.1,0-0.1,0-0.2,0.1C8,20,7.8,20.1,7.7,20.1c-0.2-0.1-0.4,0-0.4,0.1c0,0.1,0,0.2,0,0.2c0.1,0.1,0.1,0.1,0.2,0.1
		c0.1,0,0.1,0,0.1,0.1c0.1,0.1,0.5,0.1,0.7,0.1c0.3,0,0.5,0.1,0.6,0.2C8.9,21,9,21,9,21c0.1,0,0.4,0.3,0.6,0.5c0,0,0.1,0,0.1,0.1
		c-0.5-0.1-1.2-0.1-1.3-0.1l-0.4,0l0.3,0.2c0,0.1,0,0.8-0.2,1C8,22.8,8,23.1,7.9,23.3c-0.1,0.1-0.1,0.3-0.2,0.4l-0.1,0.1h0.2
		c0.4,0,2.4-0.3,3-0.5c0.3-0.1,0.7-0.1,1-0.1c0.2,0,0.4,0,0.7-0.1c0.5-0.1,0.8-0.2,1-0.3c0,0,0.1,0,0.1-0.1c0.6,0.3,2,0.6,2.1,0.6
		l0.2,0l0-0.2C15.8,23.3,15.6,22.8,15.4,22.2z M12.5,23c-0.2,0-0.4,0-0.7,0.1c-0.4,0-0.7,0.1-1.1,0.1c-0.5,0.1-2.1,0.4-2.8,0.4
		c0-0.1,0.1-0.2,0.1-0.3c0.1-0.2,0.2-0.4,0.3-0.6c0.2-0.2,0.3-0.8,0.2-1.1c0.4,0,1.2,0.1,1.4,0.2l0.5,0.1l0,0l2.8,0.7
		C13.1,22.8,12.8,22.9,12.5,23z M13.6,22.6L13.6,22.6L13.6,22.6l-3.5-0.9c-0.1-0.1-0.2-0.2-0.3-0.3c-0.3-0.3-0.5-0.5-0.6-0.5
		c0,0-0.1-0.1-0.1-0.1c-0.2-0.1-0.4-0.3-0.8-0.3h0c-0.2,0-0.5,0-0.5,0c-0.1,0-0.1-0.1-0.2-0.1c0,0-0.1,0-0.1,0c0,0,0,0,0,0
		c0,0,0.1,0,0.2,0c0.2,0.1,0.5,0,0.6-0.1c0.1,0,0.1-0.1,0.2-0.1c0,0,0.1,0,0.1,0c0.2-0.1,0.5-0.2,0.7,0c0.2,0.2,0.8,0.6,1.2,0.4
		c0.2-0.1,0.5-0.2,0.7-0.1c0.2,0.1,0.3,0.2,0.4,0.3c0,0.1,0,0.1,0,0.2c0,0.1,0,0.2,0.2,0.2c0.1,0,1.1,0,1.7,0.1l0.3,0l0,0
		c0.2-0.1,0.3-0.3,0.4-0.4c0.2-0.2,0.3-0.3,0.4-0.3c0.2,0,0.5-0.1,0.6-0.1c0.1,0,0.2,0,0.3,0s0.1,0,0.2,0c0,0,0.1,0,0.1,0
		c-0.1,0-0.1,0.1-0.1,0.1c0,0.1,0,0.1-0.5,0.3c0,0-0.1,0-0.1,0c-0.1,0-0.2,0.2-0.2,0.3l-0.1,0.2l0.2,0c0.1,0,0.1,0,0.2,0
		c-0.1,0.2-0.2,0.6,0,1.2c0.1,0.4,0.2,0.7,0.3,0.9C15.1,23.1,14,22.8,13.6,22.6z"/>
</g>
</svg>
