<?xml version="1.0" encoding="utf-8"?>
<!-- Generator: Adobe Illustrator 24.0.1, SVG Export Plug-In . SVG Version: 6.00 Build 0)  -->
<svg version="1.1" id="Calque_1" xmlns="http://www.w3.org/2000/svg" xmlns:xlink="http://www.w3.org/1999/xlink" x="0px" y="0px"
	 viewBox="0 0 24 30" style="enable-background:new 0 0 24 30;" xml:space="preserve">
<style type="text/css">
	.st0{fill:#C3D100;}
</style>
<g>
	<path class="st0" d="M8.6,23.7C8.6,23.7,8.6,23.7,8.6,23.7C8.6,23.7,8.6,23.7,8.6,23.7c0.1,0.1,0.2,0.1,0.2,0.1c0.2,0,0.6,0,1.1,0
		c0.4,0,0.7,0,1-0.1c0.2,0,0.5,0,0.8-0.1c-0.2,0-0.4,0-0.5,0C10.5,23.6,9.2,23.7,8.6,23.7z"/>
	<path class="st0" d="M22.4,17.7c0,0-0.1,0-0.1,0.1c-0.1,0.2-0.2,0.3-0.2,0.4c-0.1,0-0.1,0.1-0.1,0.2c0,0.1,0,0.2,0,0.3
		c0,0,0.1,0.1,0.2,0.1c0,0,0,0,0.1,0c0,0,0.2,0,0.2-0.1l-0.1,0l0.1,0C22.5,18.4,22.6,18.2,22.4,17.7C22.5,17.8,22.4,17.7,22.4,17.7z
		 M22.3,18.4C22.3,18.4,22.3,18.4,22.3,18.4c0,0-0.1,0.1-0.1,0.1c0,0,0-0.1,0-0.2c0.1,0,0.1-0.1,0.2-0.2
		C22.3,18.3,22.3,18.4,22.3,18.4z"/>
	<path class="st0" d="M8.6,23.7c-0.1-0.2,0.2-1.2,0.2-1.3c0.1-0.2,0.2-0.6,0.2-0.7C8.4,21.4,7.6,21,7.2,21c-0.2,0-0.3,0-0.4,0
		c0,0-0.1,0-0.1,0c-0.1,0-0.5,0.1-0.6-0.1c0,0,0-0.1,0-0.1c0,0,0,0,0,0c0,0,0,0,0,0c0,0,0-0.1,0-0.1c0-0.1,0.1-0.2,0.2-0.2
		c0-0.1,0.2-0.6,0.4-0.8c-0.2,0-0.9,0-1.4,0c-0.4,0-0.7,0.1-1,0.1c0,0,0.1,0,0.1,0c0.2-0.1,0.6-0.3,0.6-0.3C6,18.6,7,17.7,7.5,17.2
		C7.5,17.1,7.6,17,7.7,17c0.3-0.3,0.6-0.9,0.6-1.3c0-0.2,0-0.3,0.1-0.4c0-0.2,0.1-0.4,0.1-0.8c0-0.3,0.1-0.8,0.1-1.3c0,0,0,0,0,0
		c0.2,1.4,0.3,1.6,0.3,1.8c0,0.2,0.1,0.5,0,0.7s0.2,0.3,0.2,0.6S8.7,16.8,8.9,17c0,0.1-0.3,0.1-0.3,0.3c0,0.2,0.2,0.4,0.1,0.4
		s-0.4,0.2-0.4,0.5s-0.1,0.7-0.2,0.7c-0.2,0.1,0.1,0.3,0.1,0.4c0,0,0,0.1,0,0.1c-0.1,0-0.1,0-0.2,0.1c0,0,0,0,0,0
		c0.1,0,0.1,0.1,0.2,0.1l0,0C8.5,19.9,8.9,20,9,20c0.2-0.1,0.6-0.1,1.2,0.5c0.2,0.1,3.2,0,4-0.3c0,0,0.1,0,0.1,0c0,0,0,0,0.1,0.1
		c0,0.1,0,0.2,0,0.2c-0.1,0.1-0.2,0.4-0.1,1c0,0.1,0,0.2,0,0.3c0,0.4,0,0.9,0.3,0.9c0,0,0.1,0,0.1,0.1c0,0,0,0,0,0c0,0-0.1,0-0.1,0
		c0,0,0.1,0,0.1,0c0,0,0,0.1,0,0.1c-0.3,0.2-0.9,0.5-1,0.5c-0.1,0-0.9,0.2-1.6,0.2c1.2,0,3.6,0,4.5,0.1c1,0.1,1.9-0.3,3.2-0.6
		c1.3-0.3,1.9-1.3,2.2-1.9c0.2-0.5,0-1.1-0.8-1.6c0.1,0,0.2,0,0.3,0.1c0.2,0,0.3,0.1,0.4,0.1c0.1,0.1,0.3,0.1,0.4,0.1
		c0.2,0,0.3,0,0.4-0.1c0.1,0,0.3-0.1,0.4-0.2c0.1-0.1,0.2-0.2,0.3-0.5c0-0.1,0.1-0.1,0.1-0.2c0.2-0.6-0.1-1.3-0.3-1.6
		c0,0-0.1-0.1-0.1-0.1c0,0-0.1-0.1-0.1-0.1c0,0,0,0,0,0c-0.2,0-0.4,0.2-0.7,0.5c-0.1,0.1-0.1,0.1-0.1,0.2c-0.1,0.1-0.2,0.1-0.4,0.2
		c-0.2,0-0.3,0.1-0.5,0.2c-0.2,0.1-0.5-0.1-0.9-0.7l-0.2-0.2c-0.2-0.2-0.4-0.6-0.6-0.9c-0.3-0.5-0.6-0.9-0.9-1.2
		c-0.3-0.3-0.4-0.7-0.4-1.3c0-0.2,0-0.5-0.1-0.8c-0.1-0.7-0.1-1.3-0.1-2c0-0.5,0-1,0-1.6c-0.1-1.4-1.3-1.9-2-1.9c0,0,0,0,0,0
		c-0.5,0-0.6,0-0.8-0.1c0,0-0.1,0-0.1,0c-0.7-0.3-0.9-0.7-1-1c-0.1-0.3-0.1-0.5,0-0.6c0.1-0.2,0.3-0.7,0.3-1.1c0,0,0.1,0,0.1,0
		c0.3-0.2,0.5-0.9,0.5-1.3c0-0.2-0.1-0.2-0.2-0.3c0,0,0,0,0,0c0.1-0.1,0.2-0.2,0.2-0.5c0-0.4-0.4-1.8-1.6-2.1
		c-0.4-0.1-0.7-0.4-1.1-0.2c-0.4,0.1-0.6,0.3-0.6,0.3S9.7,0.9,9.9,3.1c-0.1,0-0.2,0-0.2,0.1c-0.1,0.2,0,0.6,0.1,1l0,0.1
		c0,0.1,0.2,0.4,0.4,0.5c0,0,0,0,0,0c0,0.3,0.2,0.7,0.3,0.9c0.1,0.8-0.1,1-0.3,1.2c0,0-0.1,0.1-0.1,0.1c0,0-0.1,0.1-0.1,0.1
		C10,7.1,10,7.1,9.8,7.2C9.6,7.4,9.3,7.6,9.1,7.6c-1,0-1.4,0.2-1.9,0.6c-0.6,0.4-0.8,2.2-0.6,2.9c0.1,0.5,0,1.2-0.1,1.9
		c0,0.3-0.1,0.5-0.1,0.7c-0.1,0.7-0.3,1.6-0.3,1.7c-0.2,0.2-1,0.9-1.3,1.7c-0.3,0.7-1.2,1.5-1.4,1.7c0,0,0,0,0,0
		c0-0.1-0.1-0.1-0.2-0.1l0,0c-0.1,0-0.5-0.3-0.5-0.3c0,0,0-0.1,0-0.1c0-0.1,0.1-0.3-0.1-0.5c-0.1,0-0.1-0.1-0.2,0
		c-0.2,0-0.4,0.3-0.5,0.5l0,0c-0.2,0.2-0.2,0.8-0.3,1.1c0,0,0,0,0,0c-0.2,0-0.4,0.1-0.4,0.2c-0.1,0.1-0.1,0.3,0,0.4
		c0,0.1,0.1,0.1,0.2,0.1c0.1,0,0.2,0,0.4,0.1c-0.1,0.2-0.1,0.3,0,0.4c0.1,0.1,0.2,0.1,0.3,0c0,0,0.2-0.1,0.4-0.1
		c0.2,0,0.3-0.1,0.4-0.1c0,0,0.1,0,0.1-0.1c0,0,0,0,0,0c-0.6,0.3-1,0.7-1.1,1.1c-0.2,0.8,0.3,1.6,0.9,2c0.6,0.4,1,0.5,1.4,0.5
		c0.4,0,2.9,0,2.9,0c0.7,0,1.1,0,1.5,0C8.3,23.7,8.4,23.7,8.6,23.7 M9.4,9.7c-0.3,0.5-0.7,1.6-0.8,2.7c-0.1,0.7-0.3,1.6-0.3,2
		c-0.1,0.5-0.1,0.7-0.1,0.8c0,0.1,0,0.2-0.1,0.4c0,0.4-0.3,0.9-0.6,1.2c0,0-0.1,0.1-0.2,0.2c-0.5,0.5-1.4,1.4-2.5,2.1
		c0,0-0.4,0.2-0.6,0.3c-0.2,0.1-0.6,0.3-0.8,0.3c0,0,0,0,0,0c0,0-0.1,0.1-0.1,0.1C3.1,20,3,20,2.9,20.1c0,0,0-0.1,0-0.1
		c0-0.1,0-0.1,0-0.2c0,0,0,0-0.1,0c-0.1,0-0.1,0-0.2,0.1c-0.1,0-0.1,0.1-0.2,0.1c-0.1,0-0.2,0.1-0.3,0.1c-0.2,0.1-0.3,0.1-0.4,0.1
		c0,0,0,0,0,0c0,0,0-0.1,0-0.2c0,0,0-0.1,0-0.1c-0.2-0.2-0.4-0.2-0.5-0.2c0,0-0.1-0.1,0-0.2c0-0.1,0.2-0.1,0.4-0.1c0,0,0.1,0,0.1,0
		c0,0,0,0,0-0.1c0-0.3,0.1-0.9,0.2-1.1l0,0C2,18,2.2,17.7,2.3,17.7c0,0,0,0,0.1,0c0.1,0.1,0,0.1,0,0.3c0,0.1,0,0.2,0,0.2
		c0.1,0.1,0.5,0.5,0.7,0.5c0,0,0.1,0.1,0.1,0.1c0,0.1,0.1,0.1,0.2,0.1c0.1,0,1.2-1,1.6-1.8c0.4-0.7,1.1-1.4,1.3-1.6
		c0.2-0.2,0.4-1.3,0.4-1.8c0-0.2,0-0.4,0.1-0.7c0.1-0.6,0.2-1.4,0.1-1.9c-0.1-0.7,0.1-2.4,0.6-2.6c0.5-0.3,0.9-0.5,1.8-0.5
		c0,0,0,0,0,0c0.1,0,0.4-0.2,0.6-0.3C9.7,8,9.7,9.2,9.4,9.7z M10.5,4.7C10.5,4.7,10.5,4.6,10.5,4.7c-0.1-0.1-0.1-0.1-0.1-0.1
		c-0.1,0-0.2-0.2-0.2-0.3l0-0.1C9.8,3.6,9.9,3.4,9.9,3.4c0,0,0,0,0,0c0,0,0.1,0,0.1,0c0,0.1,0.1,0.2,0.1,0.3c0,0.1,0.1,0.3,0.2,0.2
		c0,0,0-0.7,0.1-0.9c0-0.2,0.2-0.3,0.3-0.5s0.4-0.5,0.4-0.5s0.6,0,0.8,0s0.7,0.3,0.9,0.4s1.1,0.4,1,0.9c0,0.4-0.1,0.5,0,0.6
		c0,0,0.1-0.1,0.2-0.2c0,0,0,0,0,0c0-0.1,0.1-0.1,0.1-0.1c0,0,0,0,0,0.1c0,0.3-0.2,0.9-0.4,1.1c0,0,0,0,0,0c0,0-0.1,0-0.1,0
		c0,0-0.1,0.1-0.1,0.1c0,0.4-0.2,0.9-0.3,1.1c-0.1,0.1-0.5,0.5-0.7,0.5c-0.7,0.4-0.9,0.2-1.1,0c-0.2-0.1-0.7-0.6-0.8-0.7
		C10.6,5.3,10.5,5,10.5,4.7z M13.8,9.8c-0.8,0.5-2.5,0.6-3.1-0.3c-0.4-0.7-0.5-1.8-0.5-2.2c0.1,0,0.1-0.1,0.1-0.1
		c0,0,0.1-0.1,0.1-0.1c0.2-0.1,0.4-0.4,0.4-1.1c0.2,0.2,0.5,0.4,0.6,0.5c0.1,0.1,0.3,0.3,0.6,0.3c0.2,0,0.4-0.1,0.8-0.2
		c0.1-0.1,0.4-0.3,0.5-0.4c0,0.1,0,0.3,0.1,0.4C13.5,6.7,13.7,7,14,7.3C14.2,7.9,14.4,9.3,13.8,9.8z M17.7,19.6
		c-0.1,0.1-0.6,0.1-1,0.1c0-0.2-0.2-0.3-0.4-0.4c0.1-0.1,0.1-0.2,0.1-0.4c0-0.4,0.1-1-0.2-1.2c-0.3-0.2-0.3-0.9-0.4-1.2
		c-0.1-0.3-0.4-0.9-0.3-1.3c0-0.3,0-0.7,0.1-1.1c0,0.3,0,0.6,0,0.8c0,1.7,1.4,2.6,2.2,3.1l0.3,0.2c0.6,0.4,1.2,0.8,1.6,1
		C18.4,19,17.7,19.5,17.7,19.6z M22.8,18.7c0,0.1-0.1,0.1-0.1,0.2c-0.1,0.1-0.2,0.4-0.2,0.4c0,0-0.1,0-0.1,0.1
		c0,0.1-0.2,0.2-0.3,0.2c0,0-0.1,0-0.1,0c-0.1,0.1-0.1,0.1-0.3,0.1c-0.1,0-0.2,0-0.2-0.1c0,0,0,0,0,0c-0.1,0-0.2-0.1-0.4-0.1
		c-0.3-0.1-0.7-0.1-1-0.3C19.7,19,19,18.5,18.2,18l-0.3-0.2c-0.7-0.5-2.1-1.4-2.1-2.9c0-0.4-0.1-1-0.1-1.4c0-0.1,0-0.2,0-0.3
		c0.1-0.7,0.2-1.7,0.1-2.5c-0.1-0.9-0.8-2.1-0.9-2.5c-0.1-0.3-0.1-0.5-0.2-0.6c0,0,0,0,0.1,0c0.2,0.1,0.4,0.1,0.9,0.1c0,0,0,0,0,0
		c0.5,0,1.7,0.4,1.8,1.7c0,0.6,0,1.1,0,1.6c0,0.7,0,1.4,0.1,2c0,0.3,0.1,0.6,0.1,0.8c0.1,0.7,0.1,1.2,0.5,1.5
		c0.3,0.2,0.6,0.7,0.9,1.1c0.2,0.3,0.4,0.6,0.6,0.9l0.1,0.2c0.4,0.5,0.8,0.9,1.1,0.7c0.1-0.1,0.3-0.1,0.4-0.2c0.2,0,0.3-0.1,0.5-0.2
		c0,0,0.1-0.1,0.1-0.2c0.1-0.2,0.4-0.4,0.5-0.4c0,0,0,0,0,0c0,0,0.1,0,0.1,0C22.6,17.4,23,18.1,22.8,18.7z"/>
</g>
</svg>
