<svg xmlns="http://www.w3.org/2000/svg" xmlns:xlink="http://www.w3.org/1999/xlink" viewBox="0 0 1920 1080"><defs><linearGradient id="Dégradé_sans_nom_60" x1="1265.44" y1="2024.71" x2="1404.57" y2="2024.71" gradientTransform="translate(957.1 -1727.1) rotate(44.9)" gradientUnits="userSpaceOnUse"><stop offset="0" stop-color="#fff"/><stop offset="0.38" stop-color="#72d3de"/><stop offset="0.64" stop-color="#16b6c9"/></linearGradient><linearGradient id="Dégradé_sans_nom_59" x1="1281.25" y1="1968.12" x2="1390.01" y2="2107.29" gradientTransform="translate(957.1 -1727.1) rotate(44.9)" gradientUnits="userSpaceOnUse"><stop offset="0" stop-color="#af4794"/><stop offset="0.5" stop-color="#d8a4ca"/><stop offset="1" stop-color="#fff"/></linearGradient><linearGradient id="Dégradé_sans_nom_68" x1="1227.51" y1="1910.57" x2="1426.61" y2="1910.57" gradientTransform="translate(957.1 -1727.1) rotate(44.9)" gradientUnits="userSpaceOnUse"><stop offset="0.08" stop-color="#fff"/><stop offset="0.26" stop-color="#ccd22c"/><stop offset="0.52" stop-color="#c8cf07"/></linearGradient><linearGradient id="Dégradé_sans_nom_50" x1="4310.98" y1="-1042.56" x2="4149.42" y2="-1035.03" gradientTransform="matrix(-0.85, -0.53, 0.53, -0.85, 4648.17, 1968.5)" gradientUnits="userSpaceOnUse"><stop offset="0" stop-color="#fff"/><stop offset="1" stop-color="#eb5e25"/></linearGradient><linearGradient id="Dégradé_sans_nom_50-2" x1="4023.27" y1="-1051.73" x2="4153.33" y2="-1051.73" xlink:href="#Dégradé_sans_nom_50"/><linearGradient id="Dégradé_sans_nom_50-3" x1="2637.37" y1="3418.92" x2="2447.14" y2="3427.78" gradientTransform="translate(4261.8 -1627.7) rotate(92.4)" xlink:href="#Dégradé_sans_nom_50"/><linearGradient id="Dégradé_sans_nom_50-4" x1="2298.33" y1="3402.49" x2="2451.2" y2="3402.49" gradientTransform="translate(4261.8 -1627.7) rotate(92.4)" xlink:href="#Dégradé_sans_nom_50"/><linearGradient id="Dégradé_sans_nom_44" x1="2899.03" y1="-2249.48" x2="3112.22" y2="-2249.48" gradientTransform="translate(3480.2 3516.4) rotate(-92.4)" gradientUnits="userSpaceOnUse"><stop offset="0" stop-color="#fff"/><stop offset="1" stop-color="#c8cf07"/></linearGradient><linearGradient id="Dégradé_sans_nom_60-2" x1="2927.22" y1="-2144.33" x2="3108.9" y2="-2144.33" gradientTransform="translate(3480.2 3516.4) rotate(-92.4)" xlink:href="#Dégradé_sans_nom_60"/><linearGradient id="Dégradé_sans_nom_59-2" x1="2968.36" y1="-2203.21" x2="3080.42" y2="-2059.81" gradientTransform="translate(3480.2 3516.4) rotate(-92.4)" xlink:href="#Dégradé_sans_nom_59"/><linearGradient id="Dégradé_sans_nom_44-2" x1="543.11" y1="361.51" x2="871.38" y2="361.51" gradientTransform="matrix(1, 0, 0, 1, 0, 0)" xlink:href="#Dégradé_sans_nom_44"/><linearGradient id="Dégradé_sans_nom_57" x1="945.38" y1="234.44" x2="943.45" y2="356.84" gradientUnits="userSpaceOnUse"><stop offset="0" stop-color="#af4794"/><stop offset="0.25" stop-color="#7174a9"/><stop offset="0.64" stop-color="#16b6c9"/></linearGradient><linearGradient id="Dégradé_sans_nom_58" x1="820.46" y1="604.17" x2="1092.36" y2="301.41" gradientUnits="userSpaceOnUse"><stop offset="0" stop-color="#fff"/><stop offset="0.88" stop-color="#f1e302"/></linearGradient><linearGradient id="Dégradé_sans_nom_50-5" x1="983.04" y1="561.45" x2="885.43" y2="645.42" gradientTransform="matrix(1, 0, 0, 1, 0, 0)" xlink:href="#Dégradé_sans_nom_50"/></defs><title>logo</title><g id="semblable"><path d="M438.1,585.1s-1.3,32.8,55.7,62.2,29,49.8,29,49.8S438.3,704.8,438.1,585.1Z" style="fill:url(#Dégradé_sans_nom_60)"/><path d="M539.2,532.3s-62.2-43.1-97.8,33.4c0,0-23.1,110.6,81.4,131.4,0,0-44.6,26.6-100.7-43.6,0,0-32.9-55.5,1.7-104.4S502.1,496.3,539.2,532.3Z" style="fill:url(#Dégradé_sans_nom_59)"/><path d="M607.3,643.8S651.8,538.3,529.7,501c0,0-54.6-12.8-87.4,26.7,0,0,56.5-28.7,96.8,3.5l.5.3c16.6,13.5,30.4,37.4,36.3,78.1C589.2,619.3,600,630.5,607.3,643.8Z" style="fill:url(#Dégradé_sans_nom_68)"/><path d="M585.4,623.9s-87,34.7-31.9,75.9l94.4,13.3,28.2,31s20-41.3-52-67.8C624.1,676.3,558,656.7,585.4,623.9Z" style="fill:url(#Dégradé_sans_nom_50)"/><path d="M675.3,742.8s-23.2-26.3-72-30.4c0,0-36.3-2.2-52.9-14.9,0,0,32.4,4.6,49.5-3.8C599.9,693.7,651.4,674.3,675.3,742.8Z" style="fill:url(#Dégradé_sans_nom_50-2)"/><path d="M672.6,684.8S780.7,754.2,794,673.9L742.7,569.3l19.5-46.9s-68.1,3.3-49.9,92.5C712.3,614.9,735,694.1,672.6,684.8Z" style="fill:url(#Dégradé_sans_nom_50-3)"/><path d="M761.1,524s-17.1,39,13.1,91.4c0,0,23.5,38.6,19.2,62.9,0,0-17.7-35.9-41-48.6C752.4,629.7,689.8,588.1,761.1,524Z" style="fill:url(#Dégradé_sans_nom_50-4)"/><ellipse cx="760.8" cy="471.9" rx="18.8" ry="14.9" style="fill:#ec6233"/><path d="M1151.7,498.8S1010.1,558.2,1076,671c0,0,32.3,47.5,84.2,40.5,0,0-62.4-17.6-70.4-69.8v-.5c-2.3-46.4,39.3-95.8,61.8-95C1148.3,529.7,1147.9,513.8,1151.7,498.8Z" style="fill:url(#Dégradé_sans_nom_44)"/><path d="M1194.2,682.2s19.8-62.7-2.7-124.3,6.7-57.6,6.7-57.6C1205.9,500.8,1285.2,592.6,1194.2,682.2Z" style="fill:url(#Dégradé_sans_nom_60-2)"/><path d="M1090.6,640.8s16.9,75.6,96.6,42.7c11.7-.7,92-97.4,9-184.2,0,0,73,39.9,66.5,131.6,0,0-13.8,64.5-73.8,77.3S1093.5,693.6,1090.6,640.8Z" style="fill:url(#Dégradé_sans_nom_59-2)"/><path d="M1033,530.1a166.3,166.3,0,0,1-40.5,43.4l28.4-32.3h-1.5A94.5,94.5,0,0,0,1033,530.1Z" style="fill:none;stroke:#000;stroke-miterlimit:10"/><path d="M695.7,321.5C641,435.3,925.9,486.7,1017.1,343.9c0,0-72.4,77.6-173.6-17.9,0,0-77.6-65-139.5-14.9" style="fill:url(#Dégradé_sans_nom_44-2)"/><ellipse cx="944.7" cy="274.2" rx="67.5" ry="61.2" style="fill:url(#Dégradé_sans_nom_57)"/><path d="M1007.6,354.9l-28.5,32.3C930.2,424,863,435.5,805.9,428.9l-10.4-2.6c78.3-4.6,119.9-33.1,139.9-53.4a104.3,104.3,0,0,0,70.7-18.1Z" style="fill:#a9c42b"/><path d="M940.4,677.9s126.5-192.4-153.1-250.7c0,0,139.5,21.6,221.7-80.1s202.8-96.1,211.4-89.7c0,0-98.1,39.4-128.6,138.5s-90.3,244.1-151.4,282" style="fill:url(#Dégradé_sans_nom_58)"/><path d="M846.5,697.5c68.7,63,180.2-94.7,99.9-187.4,0,0,39.2,64.1-57.5,99.7,0,0-68.1,29.4-47.8,80" style="fill:url(#Dégradé_sans_nom_50-5)"/><path d="M941.8,676.8c27.3-62.2,23-100.6,11.3-123.4,5.3-22.5-5.2-41.1-5.7-42,59.8,46,6.1,161.9-5.6,165.4" style="fill:#e96967"/></g></svg>